<svg xmlns="http://www.w3.org/2000/svg" width="100" height="32" viewBox="0 0 100 32">
  <defs>
    <linearGradient id="iconGrad-" x1="0%" y1="0%" x2="100%" y2="0%">
      <stop offset="0%" style="stop-color:#6366f1"/>
      <stop offset="100%" style="stop-color:#8b5cf6"/>
    </linearGradient>
    <clipPath id="iconClip-">
      <path d="M 16,0 L 34,0 L 34,32 L 16,32 A 16,16 0 0 1 0,16 A 16,16 0 0 1 16,0 Z"/>
    </clipPath>
  </defs>
  <rect x="0" y="0" width="100" height="32" rx="16" ry="16" fill="white"/>
  <g transform="translate(10, 6) scale(0.833)">
    <path d="M17.3041 3.541h-3.6718l6.696 16.918H24Zm-10.6082 0L0 20.459h3.7442l1.3693-3.5527h7.0052l1.3693 3.5528h3.7442L10.5363 3.5409Zm-.3712 10.2232 2.2914-5.9456 2.2914 5.9456Z" fill="#191919"/>
  </g>
  <text x="39" y="17" text-anchor="start" dominant-baseline="middle" fill="#334155" font-size="11" font-weight="600" font-family="system-ui, sans-serif">Anthropic</text>
</svg>