<svg xmlns="http://www.w3.org/2000/svg" width="100" height="28" viewBox="0 0 100 28">
  <defs>
    <linearGradient id="iconGrad-" x1="0%" y1="0%" x2="100%" y2="0%">
      <stop offset="0%" style="stop-color:#6366f1"/>
      <stop offset="100%" style="stop-color:#8b5cf6"/>
    </linearGradient>
    <clipPath id="iconClip-">
      <path d="M 14,0 L 32,0 L 32,28 L 14,28 A 14,14 0 0 1 0,14 A 14,14 0 0 1 14,0 Z"/>
    </clipPath>
  </defs>
  <rect x="0" y="0" width="100" height="28" rx="11" ry="11" fill="white"/>
  <g transform="translate(10, 4) scale(0.833)">
    <path d="M18.665 21.978C16.758 23.255 14.465 24 12 24 5.377 24 0 18.623 0 12S5.377 0 12 0s12 5.377 12 12c0 3.583-1.574 6.801-4.067 9.001L9.219 7.2H7.2v9.596h1.615V9.251l9.85 12.727Zm-3.332-8.533 1.6 2.061V7.2h-1.6v6.245Z" fill="#000000"/>
  </g>
  <text x="39" y="15" text-anchor="start" dominant-baseline="middle" fill="#334155" font-size="11" font-weight="600" font-family="system-ui, sans-serif">Next.js</text>
</svg>