<svg xmlns="http://www.w3.org/2000/svg" width="105" height="32" viewBox="0 0 105 32">
  <defs>
    <linearGradient id="iconGrad-" x1="0%" y1="0%" x2="100%" y2="0%">
      <stop offset="0%" style="stop-color:#6366f1"/>
      <stop offset="100%" style="stop-color:#8b5cf6"/>
    </linearGradient>
    <clipPath id="iconClip-">
      <path d="M 16,0 L 34,0 L 34,32 L 16,32 A 16,16 0 0 1 0,16 A 16,16 0 0 1 16,0 Z"/>
    </clipPath>
  </defs>
  <rect x="0" y="0" width="105" height="32" rx="16" ry="16" fill="white"/>
  <g transform="translate(10, 6) scale(0.833)">
    <path d="M17.193 9.555c-1.264-5.58-4.252-7.414-4.573-8.115-.28-.394-.53-.954-.735-1.44-.036.495-.055.685-.523 1.184-.723.566-4.438 3.682-4.74 10.02-.282 5.912 4.27 9.435 4.888 9.884l.07.05A73.49 73.49 0 0111.91 24h.481c.114-1.032.284-2.056.51-3.07.417-.296.604-.463.85-.693a11.342 11.342 0 003.639-8.464c.01-.814-.103-1.662-.197-2.218zm-5.336 8.195s0-8.291.275-8.29c.213 0 .49 10.695.49 10.695-.381-.045-.765-1.76-.765-2.405z" fill="#47A248"/>
  </g>
  <text x="39" y="17" text-anchor="start" dominant-baseline="middle" fill="#334155" font-size="12" font-weight="600" font-family="system-ui, sans-serif">MongoDB</text>
</svg>