<svg xmlns="http://www.w3.org/2000/svg" width="100" height="28" viewBox="0 0 100 28">
  <defs>
    <linearGradient id="iconGrad-" x1="0%" y1="0%" x2="100%" y2="0%">
      <stop offset="0%" style="stop-color:#6366f1"/>
      <stop offset="100%" style="stop-color:#8b5cf6"/>
    </linearGradient>
    <clipPath id="iconClip-">
      <path d="M 14,0 L 32,0 L 32,28 L 14,28 A 14,14 0 0 1 0,14 A 14,14 0 0 1 14,0 Z"/>
    </clipPath>
  </defs>
  <rect x="0" y="0" width="100" height="28" rx="11" ry="11" fill="white"/>
  <g transform="translate(10, 4) scale(0.833)">
    <path d="M22.219 11.784 11.784 22.219c-.407.407-.407 1.068 0 1.476.407.407 1.068.407 1.476 0L23.695 13.26c.407-.408.407-1.069 0-1.476-.408-.407-1.069-.407-1.476 0ZM20.132.305.305 20.132c-.407.407-.407 1.068 0 1.476.408.407 1.069.407 1.476 0L21.608 1.781c.407-.407.407-1.068 0-1.476-.408-.407-1.069-.407-1.476 0Z" fill="#000000"/>
  </g>
  <text x="39" y="15" text-anchor="start" dominant-baseline="middle" fill="#334155" font-size="11" font-weight="600" font-family="system-ui, sans-serif">shadcn/ui</text>
</svg>