<svg xmlns="http://www.w3.org/2000/svg" width="110" height="32" viewBox="0 0 110 32">
  <defs>
    <linearGradient id="iconGrad-" x1="0%" y1="0%" x2="100%" y2="0%">
      <stop offset="0%" style="stop-color:#6366f1"/>
      <stop offset="100%" style="stop-color:#8b5cf6"/>
    </linearGradient>
    <clipPath id="iconClip-">
      <path d="M 16,0 L 34,0 L 34,32 L 16,32 A 16,16 0 0 1 0,16 A 16,16 0 0 1 16,0 Z"/>
    </clipPath>
  </defs>
  <rect x="0" y="0" width="110" height="32" rx="16" ry="16" fill="url(#iconGrad-)"/>
  <g clip-path="url(#iconClip-)">
    <g transform="translate(10, 6) scale(0.833)">
      <path d="M5.419 8.534h1.614v6.911H5.419v-.72c-.71.822-1.573.933-2.07.933C1.218 15.658 0 13.882 0 11.985c0-2.253 1.542-3.633 3.37-3.633.507 0 1.4.132 2.049.984zm-3.765 3.491c0 1.198.751 2.202 1.918 2.202 1.015 0 1.959-.74 1.959-2.181 0-1.512-.934-2.233-1.959-2.233-1.167-.01-1.918.974-1.918 2.212zm7.297-3.49h1.613v.618a3 3 0 0 1 .67-.578c.314-.183.619-.233.984-.233.396 0 .822.06 1.269.324l-.66 1.462a1.432 1.432 0 0 0-.822-.244c-.345 0-.69.05-1.005.376-.446.477-.446 1.136-.446 1.593v3.582H8.94zm5.56 0h1.614v.639c.538-.66 1.177-.822 1.705-.822.72 0 1.4.345 1.786 1.015.579-.822 1.441-1.015 2.05-1.015.842 0 1.573.396 1.969 1.086.132.233.365.74.365 1.745v4.272h-1.614V11.65c0-.771-.08-1.086-.152-1.228-.101-.264-.345-.609-.923-.609-.396 0-.741.213-.954.508-.284.395-.315.984-.315 1.572v3.562H18.43V11.65c0-.771-.081-1.086-.152-1.228-.102-.264-.345-.609-.924-.609-.396 0-.74.213-.954.508-.284.395-.314.984-.314 1.572v3.562h-1.573z" fill="white"/>
    </g>
  </g>
  <text x="39" y="17" text-anchor="start" dominant-baseline="middle" fill="white" font-size="12" font-weight="600" font-family="system-ui, sans-serif">Embedded</text>
</svg>