<svg xmlns="http://www.w3.org/2000/svg" width="105" height="32" viewBox="0 0 105 32">
  <defs>
    <linearGradient id="iconGrad-" x1="0%" y1="0%" x2="100%" y2="0%">
      <stop offset="0%" style="stop-color:#6366f1"/>
      <stop offset="100%" style="stop-color:#8b5cf6"/>
    </linearGradient>
    <clipPath id="iconClip-">
      <path d="M 16,0 L 34,0 L 34,32 L 16,32 A 16,16 0 0 1 0,16 A 16,16 0 0 1 16,0 Z"/>
    </clipPath>
  </defs>
  <rect x="0" y="0" width="105" height="32" rx="16" ry="16" fill="white"/>
  <g transform="translate(10, 6) scale(0.833)">
    <path d="M12.19 2.38a9.344 9.344 0 0 0-9.234 6.893c.053-.02-.055.013 0 0-3.875 2.551-3.922 8.11-.247 10.941l.006-.007-.007.03a6.717 6.717 0 0 0 4.077 1.356h5.173l.03.03h5.192c6.687.053 9.376-8.605 3.835-12.35a9.365 9.365 0 0 0-2.821-4.552l-.043.043.006-.05A9.344 9.344 0 0 0 12.19 2.38zm-.358 4.146c1.244-.04 2.518.368 3.486 1.15a5.186 5.186 0 0 1 1.862 4.078v.518c3.53-.07 3.53 5.262 0 5.193h-5.193l-.008.009v-.04H6.785a2.59 2.59 0 0 1-1.067-.23h.001a2.597 2.597 0 1 1 3.437-3.437l3.013-3.012A6.747 6.747 0 0 0 8.11 8.24c.018-.01.04-.026.054-.023a5.186 5.186 0 0 1 3.67-1.69z" fill="#4285F4"/>
  </g>
  <text x="39" y="17" text-anchor="start" dominant-baseline="middle" fill="#334155" font-size="12" font-weight="600" font-family="system-ui, sans-serif">Google</text>
</svg>